<svg xmlns="http://www.w3.org/2000/svg" viewBox="0 0 589.651610 639.893546" role="img" aria-label="KOSAME umbrella logo">
<defs>
<linearGradient id="kosameUmbrellaGold" gradientUnits="userSpaceOnUse" x1="0" y1="0" x2="589.65161" y2="639.893546">
<stop offset="0%" stop-color="#C9A84C"/>
<stop offset="100%" stop-color="#E8C97A"/>
</linearGradient>
</defs>
<g transform="translate(-334.348390,1051.908248) scale(0.100000,-0.100000)" fill="url(#kosameUmbrellaGold)" stroke="none">
<path d="M6252 10497 c-21 -22 -22 -32 -22 -219 l0 -195 -122 -6 c-294 -16
-652 -100 -945 -222 -865 -363 -1495 -1107 -1736 -2050 -40 -154 -73 -367 -81
-518 -5 -88 -4 -99 14 -117 25 -25 72 -26 92 -2 8 9 22 44 32 77 40 130 114
244 234 356 154 144 327 222 560 251 297 38 635 -96 827 -329 62 -75 127 -201
145 -283 15 -66 34 -90 70 -90 42 0 60 21 75 89 41 173 183 358 369 480 151
98 337 151 537 151 143 0 256 -20 373 -67 226 -90 392 -242 488 -448 21 -44
42 -102 47 -130 10 -53 30 -75 71 -75 36 0 55 24 70 90 30 127 103 243 228
361 139 132 295 209 496 244 153 26 294 16 441 -31 181 -59 359 -182 461 -318
59 -78 117 -191 133 -261 15 -61 35 -85 71 -85 48 0 60 26 60 128 0 178 -49
455 -125 707 -105 350 -299 719 -527 1008 -97 123 -307 333 -439 440 -226 182
-551 369 -813 466 -273 102 -666 181 -901 181 l-75 0 0 200 c0 187 -1 201 -20
220 -27 27 -62 25 -88 -3z m443 -576 c190 -29 351 -67 510 -121 536 -183 993
-514 1340 -969 138 -182 298 -476 388 -716 70 -186 158 -525 136 -525 -5 0 -9
4 -9 9 0 20 -148 155 -227 208 -503 334 -1194 195 -1510 -304 l-47 -74 -30 54
c-17 29 -47 75 -68 103 -50 67 -170 182 -243 231 -314 212 -717 248 -1085 99
-195 -79 -380 -240 -493 -429 l-35 -58 -32 60 c-42 78 -135 189 -215 254 -180
148 -398 232 -635 244 -323 16 -619 -94 -837 -312 -49 -48 -83 -76 -83 -66 1
31 39 187 75 306 82 272 207 535 365 772 127 191 207 290 355 438 464 465
1059 743 1742 815 140 14 488 4 638 -19z"/>
<path d="M6247 7722 c-16 -17 -17 -139 -17 -1550 0 -1087 -3 -1546 -11 -1584
-17 -82 -58 -158 -113 -214 -164 -163 -429 -162 -592 1 -82 81 -124 182 -124
297 0 47 -4 59 -22 72 -30 22 -60 20 -86 -4 -18 -17 -22 -32 -22 -83 0 -183
117 -379 276 -464 80 -43 195 -73 274 -73 204 1 399 118 485 293 68 138 65 49
65 1750 0 1524 0 1537 -20 1557 -25 25 -72 26 -93 2z"/>
</g>
</svg>
